<svg width="375" height="152" viewBox="0 0 375 152" fill="none" xmlns="http://www.w3.org/2000/svg">
<g opacity="0.5">
<path d="M-52 0.5C47.1414 0.5 39.2101 38.0212 -4.71717 111.843C-34.2138 161.414 35.5495 140.671 65.4444 127.859C205.768 67.7201 347.616 102.082 384.222 151.5" stroke="url(#paint0_linear_258_868)"/>
<circle cx="4.57576" cy="4.57576" r="4.07576" transform="matrix(1 0 0 -1 147.808 105.742)" fill="#F5F1EC" stroke="#EDE2CF"/>
<path d="M154.753 109.118C155.115 110.909 155.037 112.44 154.744 113.452C154.588 113.994 154.423 114.246 154.327 114.357C154.32 114.352 154.311 114.35 154.304 114.345L154.24 114.302L154.106 114.204C153.419 113.654 152.459 112.174 151.959 109.887L151.307 106.902C151.542 106.909 151.779 106.902 152.016 106.878C152.776 106.803 153.506 106.568 154.162 106.199L154.753 109.118ZM147.07 104.691C147.442 105.192 147.901 105.63 148.428 105.982C148.738 106.189 149.067 106.361 149.409 106.499L147.493 108.792C146.32 110.197 145.077 111.088 144.107 111.488C143.575 111.706 143.274 111.73 143.131 111.722L143.13 111.719L143.128 111.665L143.123 111.613L143.117 111.448C143.119 110.568 143.677 108.898 145.155 107.067L147.07 104.691ZM159.545 103.653C161.172 104.485 162.321 105.5 162.929 106.359C163.255 106.818 163.347 107.102 163.373 107.243L163.32 107.259L163.26 107.279C162.475 107.538 160.634 107.42 158.395 106.315L155.659 104.965C156.027 104.53 156.329 104.041 156.547 103.513C156.709 103.121 156.823 102.712 156.891 102.295L159.545 103.653ZM143.102 100.002L146.163 100.033C145.913 100.995 145.928 102.012 146.212 102.974L143.225 102.9C141.398 102.854 139.923 102.438 139.002 101.928C138.501 101.65 138.292 101.431 138.208 101.314L138.24 101.288L138.272 101.258C138.885 100.681 140.638 99.9763 143.102 100.002ZM162.482 95.5452C163.061 95.5788 163.348 95.6879 163.475 95.7581V95.76L163.46 95.7952L163.447 95.8303C163.142 96.6217 161.878 97.9975 159.622 99.0569L156.859 100.355C156.684 99.4701 156.295 98.6359 155.715 97.9309C155.658 97.8612 155.598 97.7943 155.537 97.7278L158.258 96.4983C159.92 95.7471 161.429 95.484 162.482 95.5452ZM143.33 90.9954L143.388 91.0032C144.201 91.1123 145.814 92.0276 147.355 93.9944L149.242 96.4036C149.121 96.4573 149.001 96.5147 148.884 96.5774C148.118 96.9876 147.465 97.571 146.974 98.2747L145.168 95.8948C144.063 94.438 143.468 93.0259 143.293 91.9885C143.198 91.4239 143.238 91.124 143.278 90.9856L143.33 90.9954ZM154.519 88.5071L154.546 88.5579L154.576 88.6067C154.999 89.3129 155.292 91.1427 154.713 93.5725L154.004 96.5461C153.547 96.3085 153.054 96.1341 152.541 96.0325C152.068 95.9387 151.588 95.9083 151.113 95.9397L151.851 93.0481C152.303 91.2733 153.035 89.9282 153.735 89.1448C154.124 88.7093 154.386 88.5565 154.517 88.5042C154.517 88.5051 154.518 88.5061 154.519 88.5071Z" fill="#EDE2CF" stroke="#EDE2CF" stroke-width="5.12"/>
<circle cx="100.525" cy="114.894" r="4.57576" fill="#EDE2CF"/>
<circle cx="213.394" cy="96.5909" r="4.57576" fill="#EDE2CF"/>
</g>
<defs>
<linearGradient id="paint0_linear_258_868" x1="259.722" y1="128" x2="166.111" y2="0.499989" gradientUnits="userSpaceOnUse">
<stop stop-color="#EDE2CF"/>
<stop offset="1" stop-color="#D1B582"/>
</linearGradient>
</defs>
</svg>
