<svg width="97" height="100" viewBox="0 0 97 100" fill="none" xmlns="http://www.w3.org/2000/svg">
<path d="M96.7373 40.3713V95.1217C96.7474 96.4875 96.1699 97.7918 95.152 98.7023L95.0082 98.8461C94.1302 99.5946 93.0132 100.004 91.8593 99.9997H4.87945C3.73387 99.9995 2.62596 99.5904 1.75499 98.8461C1.6956 98.8111 1.64614 98.7617 1.61117 98.7023C0.585614 97.7949 -0.00103783 96.491 0.000203759 95.1217V40.3713C-0.0111775 39.1541 0.454626 37.9808 1.29787 37.103C1.64159 36.6972 2.05462 36.3554 2.51732 36.0932C3.23931 35.6982 4.04924 35.4914 4.87221 35.4921H91.8583C93.2236 35.5167 94.5221 36.0878 95.4632 37.0774C96.281 37.9798 96.7352 39.1535 96.7373 40.3713Z" fill="#D1B582"/>
<path d="M95.4678 37.0727C95.1251 37.4958 48.3943 74.6595 48.3943 74.6595L1.29517 37.114L1.31586 37.0946V37.0739L45.7274 0.945471C47.2773 -0.315157 49.4993 -0.315157 51.0494 0.945471L95.4678 37.0727Z" fill="#B3935A"/>
<path d="M85.5323 11.881V45.0739L48.3895 74.6595L11.2258 45.0337V11.881H85.5323Z" fill="#F5F1EC"/>
<path d="M95.146 98.6998C95.1042 98.7519 95.0566 98.7993 95.0044 98.8413L53.1651 70.9314L56.9944 67.8473L95.146 98.6998Z" fill="#B3935A"/>
<path d="M43.5918 70.9107L1.7525 98.8376C1.69104 98.8074 1.64117 98.7578 1.61096 98.6961L39.7429 67.8068L43.5918 70.9107Z" fill="#B3935A"/>
<path d="M19.4576 20.5933H77.2787V23.1019H19.4576V20.5933Z" fill="#E4D4B7"/>
<path d="M19.4576 30.2689H77.2787V32.7776H19.4576V30.2689Z" fill="#E4D4B7"/>
<path d="M19.4576 39.9459H77.2787V42.4546H19.4576V39.9459Z" fill="#E4D4B7"/>
<path d="M29.1687 49.6215H67.569V52.1301H29.1687V49.6215Z" fill="#E4D4B7"/>
</svg>
