<svg width="100" height="100" viewBox="0 0 100 100" fill="none" xmlns="http://www.w3.org/2000/svg">
<path fill-rule="evenodd" clip-rule="evenodd" d="M50 12C29.0468 12 12 29.0463 12 50C12 70.9537 29.0468 88 50 88C70.9532 88 88 70.9537 88 50C88 29.0463 70.9534 12 50 12ZM72.9401 29.3068L73.9706 33.542C74.2676 34.7134 74.2879 35.9379 74.0297 37.1184C73.7716 38.299 73.2422 39.4032 72.4833 40.3437L50.1192 68.6154C49.3866 69.5628 48.4446 70.3279 47.3671 70.8507C46.2896 71.3736 45.1057 71.64 43.9081 71.6293C43.8448 71.6293 43.7802 71.6293 43.7161 71.6279C42.4858 71.6138 41.2765 71.3077 40.1877 70.735C39.0988 70.1623 38.1615 69.3392 37.4529 68.3334L26.0212 52.4842C25.901 52.3176 25.8245 52.1235 25.7989 51.9196C25.7733 51.7158 25.7994 51.5087 25.8747 51.3176C25.95 51.1264 26.0721 50.9572 26.2299 50.8256C26.3877 50.694 26.576 50.6041 26.7776 50.5643L34.3252 49.0704C35.6329 48.798 36.9888 48.866 38.2627 49.268C39.5366 49.67 40.6859 50.3925 41.6004 51.3663L44.8391 54.7479L70.8827 28.7292C71.0367 28.5756 71.2287 28.4656 71.4392 28.4107C71.6496 28.3558 71.8709 28.3578 72.0803 28.4166C72.2897 28.4754 72.4797 28.5888 72.6308 28.7452C72.7819 28.9017 72.8886 29.0955 72.9401 29.3068Z" fill="url(#paint0_linear_543_26520)"/>
<circle cx="50" cy="50" r="46" stroke="url(#paint1_linear_543_26520)" stroke-width="4"/>
<defs>
<linearGradient id="paint0_linear_543_26520" x1="23" y1="24.5" x2="83.2957" y2="36.5746" gradientUnits="userSpaceOnUse">
<stop stop-color="#E4D4B7"/>
<stop offset="0.99924" stop-color="#C5A263"/>
</linearGradient>
<linearGradient id="paint1_linear_543_26520" x1="90.5" y1="77.5" x2="8.5" y2="26.5" gradientUnits="userSpaceOnUse">
<stop stop-color="#C5A263"/>
<stop offset="1" stop-color="#E4D4B7"/>
</linearGradient>
</defs>
</svg>
