<svg width="375" height="117" viewBox="0 0 375 117" fill="none" xmlns="http://www.w3.org/2000/svg">
<g opacity="0.5">
<path d="M421.222 -35C322.081 -35 330.012 2.52121 373.939 76.3434C403.436 125.914 333.673 105.171 303.778 92.3586C163.455 32.2201 21.6061 66.5818 -15 116" stroke="url(#paint0_linear_258_875)"/>
<circle cx="284.321" cy="84.3661" r="2.13965" transform="rotate(180 284.321 84.3661)" fill="#F5F1EC" stroke="#EDE2CF"/>
<mask id="path-3-inside-1_258_875" fill="white">
<path d="M279.518 84.4855C278.056 83.7992 276.933 82.7835 276.561 81.8184C276.481 81.6275 276.44 81.4225 276.44 81.2155C276.44 81.0085 276.481 80.8035 276.561 80.6126C277.104 79.4406 279.29 79.3097 281.541 80.3275C281.167 78.7585 281.26 77.2465 281.79 76.3617C281.888 76.1789 282.023 76.0177 282.185 75.8879C282.347 75.758 282.534 75.662 282.734 75.6057C284.001 75.2932 285.449 76.9234 286.06 79.3181C287.052 78.0511 288.292 77.1768 289.314 77.0396C289.518 77.0027 289.727 77.007 289.929 77.0524C290.131 77.0977 290.322 77.1831 290.49 77.3036C291.518 78.0912 291.155 80.2473 289.66 82.2175C291.267 82.2006 292.726 82.6399 293.474 83.3431C293.629 83.4795 293.756 83.6456 293.846 83.8317C293.936 84.0177 293.989 84.2199 294 84.4264C294.025 85.7209 292.112 86.7809 289.641 86.8422C290.655 88.0987 291.227 89.4966 291.134 90.525C291.124 90.7317 291.073 90.9343 290.984 91.121C290.895 91.3078 290.769 91.4749 290.615 91.6126C289.618 92.4404 287.597 91.6126 286.009 89.712C285.665 91.2874 284.926 92.6093 284.062 93.1773C283.796 93.364 283.481 93.4676 283.156 93.4751C283.067 93.4744 282.979 93.4652 282.892 93.4476C281.625 93.1858 281.017 91.0825 281.507 88.6604C280.06 89.3741 278.567 89.6191 277.583 89.2939C277.384 89.2386 277.198 89.1439 277.036 89.0155C276.874 88.8871 276.739 88.7276 276.639 88.5463C276.052 87.3976 277.317 85.6111 279.518 84.4855ZM283.65 85.704C283.926 85.9805 284.29 86.1527 284.679 86.1912C285.068 86.2297 285.458 86.1322 285.783 85.9153C286.108 85.6984 286.348 85.3754 286.462 85.0015C286.575 84.6276 286.556 84.2258 286.407 83.8646C286.257 83.5034 285.987 83.2052 285.643 83.0207C285.298 82.8363 284.9 82.7769 284.517 82.8529C284.134 82.9289 283.789 83.1354 283.54 83.4373C283.292 83.7393 283.156 84.1179 283.156 84.5087C283.156 84.7307 283.199 84.9504 283.284 85.1555C283.369 85.3606 283.493 85.547 283.65 85.704Z"/>
</mask>
<path d="M279.518 84.4855C278.056 83.7992 276.933 82.7835 276.561 81.8184C276.481 81.6275 276.44 81.4225 276.44 81.2155C276.44 81.0085 276.481 80.8035 276.561 80.6126C277.104 79.4406 279.29 79.3097 281.541 80.3275C281.167 78.7585 281.26 77.2465 281.79 76.3617C281.888 76.1789 282.023 76.0177 282.185 75.8879C282.347 75.758 282.534 75.662 282.734 75.6057C284.001 75.2932 285.449 76.9234 286.06 79.3181C287.052 78.0511 288.292 77.1768 289.314 77.0396C289.518 77.0027 289.727 77.007 289.929 77.0524C290.131 77.0977 290.322 77.1831 290.49 77.3036C291.518 78.0912 291.155 80.2473 289.66 82.2175C291.267 82.2006 292.726 82.6399 293.474 83.3431C293.629 83.4795 293.756 83.6456 293.846 83.8317C293.936 84.0177 293.989 84.2199 294 84.4264C294.025 85.7209 292.112 86.7809 289.641 86.8422C290.655 88.0987 291.227 89.4966 291.134 90.525C291.124 90.7317 291.073 90.9343 290.984 91.121C290.895 91.3078 290.769 91.4749 290.615 91.6126C289.618 92.4404 287.597 91.6126 286.009 89.712C285.665 91.2874 284.926 92.6093 284.062 93.1773C283.796 93.364 283.481 93.4676 283.156 93.4751C283.067 93.4744 282.979 93.4652 282.892 93.4476C281.625 93.1858 281.017 91.0825 281.507 88.6604C280.06 89.3741 278.567 89.6191 277.583 89.2939C277.384 89.2386 277.198 89.1439 277.036 89.0155C276.874 88.8871 276.739 88.7276 276.639 88.5463C276.052 87.3976 277.317 85.6111 279.518 84.4855ZM283.65 85.704C283.926 85.9805 284.29 86.1527 284.679 86.1912C285.068 86.2297 285.458 86.1322 285.783 85.9153C286.108 85.6984 286.348 85.3754 286.462 85.0015C286.575 84.6276 286.556 84.2258 286.407 83.8646C286.257 83.5034 285.987 83.2052 285.643 83.0207C285.298 82.8363 284.9 82.7769 284.517 82.8529C284.134 82.9289 283.789 83.1354 283.54 83.4373C283.292 83.7393 283.156 84.1179 283.156 84.5087C283.156 84.7307 283.199 84.9504 283.284 85.1555C283.369 85.3606 283.493 85.547 283.65 85.704Z" fill="#EDE2CF"/>
<path d="M279.518 84.4855L281.694 79.8512L291.144 84.2893L281.849 89.0438L279.518 84.4855ZM276.561 81.8184L281.283 79.8377L281.312 79.9076L281.339 79.9783L276.561 81.8184ZM276.561 80.6126L271.84 78.6319L271.876 78.5459L271.915 78.4612L276.561 80.6126ZM281.541 80.3275L286.521 79.141L288.939 89.292L279.431 84.9928L281.541 80.3275ZM281.79 76.3617L286.296 78.7928L286.241 78.8941L286.182 78.9929L281.79 76.3617ZM282.734 75.6057L281.346 70.6775L281.426 70.6548L281.508 70.6347L282.734 75.6057ZM286.06 79.3181L290.09 82.4754L283.67 90.6721L281.098 80.5825L286.06 79.3181ZM289.314 77.0396L290.227 82.0776L290.111 82.0984L289.995 82.114L289.314 77.0396ZM290.49 77.3036L293.468 73.1387L293.536 73.1876L293.603 73.2388L290.49 77.3036ZM289.66 82.2175L289.714 87.3372L279.264 87.4471L285.582 79.1225L289.66 82.2175ZM293.474 83.3431L290.096 87.1905L290.03 87.1325L289.966 87.0724L293.474 83.3431ZM294 84.4264L299.112 84.1525L299.117 84.2393L299.119 84.3262L294 84.4264ZM289.641 86.8422L285.656 90.0569L279.141 81.9809L289.514 81.7238L289.641 86.8422ZM291.134 90.525L286.02 90.2763L286.025 90.1702L286.035 90.0643L291.134 90.525ZM290.615 91.6126L294.022 95.4342L293.955 95.4939L293.886 95.5513L290.615 91.6126ZM286.009 89.712L281.007 88.6191L283.238 78.4101L289.938 86.4291L286.009 89.712ZM284.062 93.1773L281.121 88.9866L281.184 88.9422L281.249 88.8996L284.062 93.1773ZM283.156 93.4751L283.274 98.5937L283.196 98.5955L283.117 98.595L283.156 93.4751ZM282.892 93.4476L281.876 98.4659L281.866 98.4638L281.856 98.4617L282.892 93.4476ZM281.507 88.6604L279.241 84.0689L288.593 79.4547L286.525 89.6754L281.507 88.6604ZM277.583 89.2939L278.953 84.3606L279.072 84.3937L279.19 84.4325L277.583 89.2939ZM276.639 88.5463L272.151 91.0103L272.115 90.9438L272.08 90.8762L276.639 88.5463ZM283.65 85.704L280.028 89.3223V89.3223L283.65 85.704ZM283.156 84.5087L288.276 84.5128L283.156 84.5087ZM279.518 84.4855L277.341 89.1198C275.325 88.1729 272.834 86.3865 271.783 83.6585L276.561 81.8184L281.339 79.9783C281.233 79.7034 281.12 79.5408 281.077 79.4827C281.031 79.4205 281.017 79.4162 281.061 79.4559C281.103 79.4936 281.179 79.5547 281.291 79.6284C281.403 79.7013 281.538 79.7781 281.694 79.8512L279.518 84.4855ZM276.561 81.8184L271.84 83.7991C271.497 82.981 271.32 82.1027 271.32 81.2155H276.44H281.56C281.56 80.7424 281.466 80.274 281.283 79.8377L276.561 81.8184ZM276.44 81.2155H271.32C271.32 80.3283 271.497 79.45 271.84 78.6319L276.561 80.6126L281.283 82.5933C281.466 82.157 281.56 81.6886 281.56 81.2155H276.44ZM276.561 80.6126L271.915 78.4612C273.357 75.3482 276.44 74.6346 278.113 74.5375C280.008 74.4275 281.945 74.8914 283.65 75.6623L281.541 80.3275L279.431 84.9928C278.885 84.7458 278.604 84.7663 278.707 84.7603C278.765 84.7569 279.104 84.7327 279.576 84.4926C280.087 84.2319 280.777 83.6938 281.207 82.764L276.561 80.6126ZM281.541 80.3275L276.56 81.514C276.048 79.365 275.876 76.2705 277.398 73.7306L281.79 76.3617L286.182 78.9929C286.34 78.7284 286.402 78.5285 286.422 78.4515C286.444 78.3695 286.44 78.3509 286.436 78.4072C286.433 78.4602 286.432 78.5552 286.445 78.6885C286.457 78.8204 286.481 78.9737 286.521 79.141L281.541 80.3275ZM281.79 76.3617L277.284 73.9307C277.708 73.1439 278.287 72.4504 278.984 71.8916L282.185 75.8879L285.386 79.8842C285.759 79.585 286.069 79.2139 286.296 78.7928L281.79 76.3617ZM282.185 75.8879L278.984 71.8916C279.682 71.3327 280.485 70.9198 281.346 70.6775L282.734 75.6057L284.122 80.534C284.582 80.4043 285.012 80.1833 285.386 79.8842L282.185 75.8879ZM282.734 75.6057L281.508 70.6347C284.845 69.8116 287.331 71.7706 288.461 73.035C289.726 74.4514 290.563 76.2554 291.021 78.0537L286.06 79.3181L281.098 80.5825C280.946 79.9862 280.753 79.7777 280.825 79.8585C280.867 79.9048 281.102 80.1607 281.592 80.3823C282.128 80.6245 282.978 80.8191 283.96 80.5767L282.734 75.6057ZM286.06 79.3181L282.029 76.1608C283.381 74.435 285.692 72.36 288.632 71.9651L289.314 77.0396L289.995 82.114C290.304 82.0725 290.501 81.9947 290.574 81.9626C290.652 81.9283 290.663 81.9135 290.616 81.9465C290.572 81.9776 290.496 82.0369 290.399 82.1309C290.302 82.2239 290.197 82.3394 290.09 82.4754L286.06 79.3181ZM289.314 77.0396L288.401 72.0016C289.279 71.8426 290.18 71.8613 291.05 72.0566L289.929 77.0524L288.808 82.0481C289.274 82.1527 289.756 82.1628 290.227 82.0776L289.314 77.0396ZM289.929 77.0524L291.05 72.0566C291.92 72.2519 292.742 72.6199 293.468 73.1387L290.49 77.3036L287.512 81.4684C287.901 81.7464 288.341 81.9435 288.808 82.0481L289.929 77.0524ZM290.49 77.3036L293.603 73.2388C296.338 75.3335 296.35 78.5101 296.07 80.1691C295.754 82.042 294.867 83.8258 293.739 85.3126L289.66 82.2175L285.582 79.1225C285.948 78.639 285.991 78.3596 285.973 78.4651C285.963 78.5249 285.91 78.8664 286.042 79.3859C286.185 79.9517 286.563 80.7451 287.377 81.3683L290.49 77.3036ZM289.66 82.2175L289.606 77.0978C291.857 77.0742 294.87 77.6269 296.982 79.6138L293.474 83.3431L289.966 87.0724C290.182 87.2756 290.353 87.3725 290.414 87.4041C290.48 87.4386 290.491 87.4359 290.433 87.4187C290.378 87.4024 290.284 87.38 290.154 87.3627C290.025 87.3456 289.876 87.3355 289.714 87.3372L289.66 82.2175ZM293.474 83.3431L296.852 79.4957C297.52 80.0822 298.064 80.7962 298.452 81.596L293.846 83.8317L289.24 86.0674C289.448 86.495 289.739 86.8768 290.096 87.1905L293.474 83.3431ZM293.846 83.8317L298.452 81.596C298.84 82.3957 299.065 83.2649 299.112 84.1525L294 84.4264L288.887 84.7002C288.913 85.1749 289.033 85.6397 289.24 86.0674L293.846 83.8317ZM294 84.4264L299.119 84.3262C299.186 87.772 296.707 89.7611 295.238 90.575C293.578 91.495 291.632 91.9144 289.768 91.9606L289.641 86.8422L289.514 81.7238C290.121 81.7087 290.367 81.5675 290.275 81.6185C290.222 81.6475 289.923 81.8187 289.599 82.2452C289.246 82.7097 288.861 83.5002 288.881 84.5266L294 84.4264ZM289.641 86.8422L293.626 83.6274C295.002 85.3335 296.5 88.0384 296.233 90.9857L291.134 90.525L286.035 90.0643C286.007 90.3695 286.039 90.5752 286.054 90.6533C286.069 90.7362 286.081 90.7505 286.059 90.6971C286.039 90.6468 285.998 90.559 285.927 90.4418C285.858 90.3257 285.767 90.1947 285.656 90.0569L289.641 86.8422ZM291.134 90.525L296.248 90.7737C296.205 91.6595 295.986 92.5277 295.604 93.3279L290.984 91.121L286.364 88.9142C286.16 89.3409 286.043 89.804 286.02 90.2763L291.134 90.525ZM290.984 91.121L295.604 93.3279C295.222 94.128 294.684 94.8441 294.022 95.4342L290.615 91.6126L287.207 87.7909C286.854 88.1056 286.568 88.4875 286.364 88.9142L290.984 91.121ZM290.615 91.6126L293.886 95.5513C291.241 97.7475 288.147 97.0632 286.584 96.4198C284.824 95.6953 283.28 94.4312 282.08 92.9949L286.009 89.712L289.938 86.4291C290.326 86.8934 290.586 86.9935 290.483 86.951C290.425 86.927 290.102 86.8 289.566 86.8138C288.983 86.8288 288.129 87.0216 287.343 87.6738L290.615 91.6126ZM286.009 89.712L291.011 90.8049C290.54 92.9616 289.353 95.8258 286.875 97.4551L284.062 93.1773L281.249 88.8996C280.992 89.0686 280.85 89.2218 280.798 89.2825C280.742 89.3471 280.738 89.3659 280.765 89.3171C280.791 89.271 280.833 89.186 280.88 89.0605C280.926 88.9362 280.97 88.7875 281.007 88.6191L286.009 89.712ZM284.062 93.1773L287.003 97.3681C285.909 98.1363 284.611 98.5629 283.274 98.5937L283.156 93.4751L283.038 88.3565C282.35 88.3723 281.683 88.5916 281.121 88.9866L284.062 93.1773ZM283.156 93.4751L283.117 98.595C282.701 98.5918 282.285 98.5486 281.876 98.4659L282.892 93.4476L283.908 88.4294C283.673 88.3819 283.434 88.3571 283.195 88.3552L283.156 93.4751ZM282.892 93.4476L281.856 98.4617C278.475 97.763 277.088 94.8967 276.622 93.287C276.095 91.4643 276.119 89.4735 276.488 87.6453L281.507 88.6604L286.525 89.6754C286.405 90.2694 286.488 90.5413 286.459 90.4412C286.443 90.3845 286.342 90.0544 285.998 89.6436C285.624 89.1959 284.937 88.6421 283.928 88.4336L282.892 93.4476ZM281.507 88.6604L283.772 93.2518C281.79 94.23 278.804 95.0895 275.977 94.1553L277.583 89.2939L279.19 84.4325C278.897 84.3358 278.688 84.3195 278.605 84.3163C278.518 84.3129 278.499 84.3214 278.552 84.3128C278.602 84.3046 278.693 84.2851 278.819 84.2436C278.944 84.2025 279.087 84.145 279.241 84.0689L281.507 88.6604ZM277.583 89.2939L276.213 94.2272C275.356 93.989 274.555 93.5818 273.857 93.0293L277.036 89.0155L280.214 85.0018C279.841 84.7061 279.412 84.4881 278.953 84.3606L277.583 89.2939ZM277.036 89.0155L273.857 93.0293C273.159 92.4768 272.579 91.7904 272.151 91.0103L276.639 88.5463L281.127 86.0824C280.898 85.6649 280.588 85.2975 280.214 85.0018L277.036 89.0155ZM276.639 88.5463L272.08 90.8762C270.504 87.7915 271.889 84.9106 272.856 83.5471C273.952 81.9992 275.525 80.7771 277.186 79.9272L279.518 84.4855L281.849 89.0438C281.31 89.3195 281.15 89.5534 281.211 89.4673C281.245 89.4188 281.442 89.1329 281.549 88.6047C281.666 88.0291 281.671 87.1404 281.198 86.2165L276.639 88.5463ZM283.65 85.704L287.273 82.0856C286.712 81.5241 285.973 81.1744 285.184 81.0962L284.679 86.1912L284.174 91.2863C282.606 91.1309 281.141 90.4369 280.028 89.3223L283.65 85.704ZM284.679 86.1912L285.184 81.0962C284.394 81.0179 283.601 81.2159 282.941 81.6564L285.783 85.9153L288.625 90.1742C287.315 91.0486 285.742 91.4416 284.174 91.2863L284.679 86.1912ZM285.783 85.9153L282.941 81.6564C282.281 82.097 281.794 82.7528 281.563 83.5121L286.462 85.0015L291.36 86.4909C290.902 87.9981 289.935 89.2998 288.625 90.1742L285.783 85.9153ZM286.462 85.0015L281.563 83.5121C281.332 84.2714 281.372 85.0873 281.675 85.8208L286.407 83.8646L291.138 81.9085C291.74 83.3643 291.819 84.9837 291.36 86.4909L286.462 85.0015ZM286.407 83.8646L281.675 85.8208C281.978 86.5542 282.526 87.1599 283.226 87.5345L285.643 83.0207L288.06 78.507C289.448 79.2506 290.536 80.4526 291.138 81.9085L286.407 83.8646ZM285.643 83.0207L283.226 87.5345C283.926 87.9091 284.734 88.0295 285.512 87.8753L284.517 82.8529L283.522 77.8306C285.067 77.5244 286.671 77.7634 288.06 78.507L285.643 83.0207ZM284.517 82.8529L285.512 87.8753C286.291 87.721 286.992 87.3016 287.496 86.6884L283.54 83.4373L279.585 80.1863C280.585 78.9693 281.977 78.1368 283.522 77.8306L284.517 82.8529ZM283.54 83.4373L287.496 86.6884C288 86.0753 288.275 85.3064 288.276 84.5128L283.156 84.5087L278.036 84.5047C278.037 82.9294 278.585 81.4032 279.585 80.1863L283.54 83.4373ZM283.156 84.5087L288.276 84.5128C288.276 84.0621 288.188 83.6158 288.016 83.1994L283.284 85.1555L278.553 87.1117C278.211 86.285 278.035 85.3992 278.036 84.5047L283.156 84.5087ZM283.284 85.1555L288.016 83.1994C287.844 82.7829 287.591 82.4044 287.273 82.0856L283.65 85.704L280.028 89.3223C279.396 88.6895 278.894 87.9383 278.553 87.1117L283.284 85.1555Z" fill="#EDE2CF" mask="url(#path-3-inside-1_258_875)"/>
<circle cx="2.5" cy="2.5" r="2.5" transform="matrix(-1 0 0 1 309 91)" fill="#EDE2CF"/>
<circle cx="2.5" cy="2.5" r="2.5" transform="matrix(-1 0 0 1 269 76)" fill="#EDE2CF"/>
</g>
<defs>
<linearGradient id="paint0_linear_258_875" x1="109.5" y1="92.5" x2="203.111" y2="-35" gradientUnits="userSpaceOnUse">
<stop stop-color="#EDE2CF"/>
<stop offset="1" stop-color="#D1B582"/>
</linearGradient>
</defs>
</svg>
